User Type,Username,Date,Text
,41PHA,2012-05-24T06:51Z,Will give A/V/M after download
,waheedkhan95,2012-05-24T20:28Z,fail movie any other bollywood shit movie same like copy shootout of lokhandwala dont waste your time !
,kamranbinniaz,2012-06-01T23:33Z,amir bhai plz upload Aashiqui in HD . PLZ PLZ PLZ
,bhaiyya,2012-09-12T11:21Z,this is not 720p..............print sucks
,daizzy786,2012-09-17T16:31Z,"These are all the specs of the movie.
D:MoviesDepartment 2012 Hindi DvDScr Rip 720p ...AmirFarooqiDepartment - Sample.mkv
Format                           : Matroska
File size                        : 15.9 MiB
Duration                         : 1mn 0s
Overall bit rate                 : 2 229 Kbps
Encoded date                     : UTC 2012-05-22 14:21:44
Writing application              : mkvmerge v2.2.0 ('Turn It On Again') built on Mar  4 2008 13:20:25
Writing library                  : libebml v0.7.7 + libmatroska v0.8.1

Video
ID                               : 1
Format                           : AVC
Format/Info                      : Advanced Video Codec
Format profile                   : High@L3.1
Format settings, CABAC           : Yes
Format settings, ReFrames        : 5 frames
Format settings, GOP             : M=1, N=43
Codec ID                         : V_MPEG4/ISO/AVC
Duration                         : 1mn 0s
Bit rate                         : 2 100 Kbps
Width                            : 1 280 pixels
Height                           : 576 pixels
Display aspect ratio             : 2.25:1
Original display aspect ratio    : 2.222
Frame rate                       : 25.000 fps
Color space                      : YUV
Chroma subsampling               : 4:2:0
Bit depth                        : 8 bits
Scan type                        : Progressive
Bits/(Pixel*Frame)               : 0.114
Stream size                      : 14.7 MiB (92%)
Writing library                  : x264 core 120
Encoding settings                : cabac=1 / ref=5 / deblock=1:0:0 / analyse=0x3:0x113 / me=umh / subme=7 / psy=1 / psy_rd=1.00:0.00 / mixed_ref=1 / me_range=16 / chroma_me=1 / trellis=1 / 8x8dct=1 / cqm=0 / deadzone=21,11 / fast_pskip=1 / chroma_qp_offset=-2 / threads=3 / sliced_threads=0 / nr=0 / decimate=1 / interlaced=0 / bluray_compat=0 / constrained_intra=0 / bframes=4 / b_pyramid=2 / b_adapt=2 / b_bias=0 / direct=1 / weightb=1 / open_gop=0 / weightp=2 / keyint=250 / keyint_min=25 / scenecut=40 / intra_refresh=0 / rc_lookahead=50 / rc=2pass / mbtree=1 / bitrate=2100 / ratetol=1.0 / qcomp=0.60 / qpmin=3 / qpmax=69 / qpstep=4 / cplxblur=20.0 / qblur=0.5 / ip_ratio=1.40 / aq=1:1.00
Language                         : English
Color primaries                  : BT.709-5, BT.1361, IEC 61966-2-4, SMPTE RP177
Transfer characteristics         : BT.709-5, BT.1361
Matrix coefficients              : BT.709-5, BT.1361, IEC 61966-2-4 709, SMPTE RP177

Audio
ID                               : 2
Format                           : AC-3
Format/Info                      : Audio Coding 3
Mode extension                   : CM (complete main)
Codec ID                         : A_AC3
Duration                         : 1mn 0s
Bit rate mode                    : Constant
Bit rate                         : 128 Kbps
Channel(s)                       : 2 channels
Channel positions                : Front: L R
Sampling rate                    : 48.0 KHz
Bit depth                        : 16 bits
Compression mode                 : Lossy
Stream size                      : 938 KiB (6%)"
